<?xml version="1.0" encoding="utf-8"?>
<!-- Generator: Adobe Illustrator 16.2.0, SVG Export Plug-In . SVG Version: 6.00 Build 0)  -->
<!DOCTYPE svg PUBLIC "-//W3C//DTD SVG 1.1//EN" "http://www.w3.org/Graphics/SVG/1.1/DTD/svg11.dtd">
<svg version="1.1" xmlns="http://www.w3.org/2000/svg" xmlns:xlink="http://www.w3.org/1999/xlink" x="0px" y="0px" width="2100px"
	 height="1350px" viewBox="0 0 2100 1350" enable-background="new 0 0 2100 1350" xml:space="preserve">
<g id="Layer_1">
	<rect width="2100" height="1350"/>
</g>
<g id="Layer_2">
	<g>
		<rect x="953.973" y="676.755" fill="none" width="0.457" height="1.393"/>
		<path fill="none" d="M1181.884,666.624c-1.438,0.465-2.221,0.945-2.352,1.443h0.393L1181.884,666.624z"/>
		<path fill="none" d="M949.727,678.896l-0.457,3.582v1.045h0.457c1.176-0.43,1.959-1.145,2.352-2.139
			C951.904,681.384,951.119,680.554,949.727,678.896z"/>
		<rect x="954.43" y="674.964" fill="none" width="0.523" height="1.393"/>
		<path fill="none" d="M933.66,670.385h-0.393c-2.221,0.697-3.331,1.775-3.331,3.235
			C931.896,672.724,933.136,671.646,933.66,670.385z"/>
		<path fill="none" d="M908.904,672.874c-2.439,0.994-4.311,2.786-5.617,5.373v0.348h0.393c4.702-3.018,7.054-4.809,7.054-5.373
			l-0.849-0.348H908.904z"/>
		<path fill="none" d="M1222.086,680.726c-0.008-2.381,0.017-4.769,0.057-7.133c-0.55,0.334-1.094,0.67-1.679,0.983
			c-0.844,0.452-1.705,0.83-2.578,1.138c-0.875,0.304-1.711,0.457-2.514,0.457c-0.801,0-1.537-0.174-2.207-0.524
			c-0.67-0.35-1.209-0.961-1.617-1.836c-1.107,1.253-2.295,2.31-3.563,3.169c-1.27,0.859-2.602,1.289-3.998,1.289
			c-1.139-0.029-1.912-0.307-2.318-0.83c-0.41-0.525-0.598-1.166-0.568-1.923s0.211-1.58,0.547-2.47
			c0.336-0.889,0.678-1.712,1.027-2.469c-0.643,0.698-1.34,1.5-2.098,2.403c-0.76,0.903-1.547,1.749-2.361,2.535
			c-0.816,0.786-1.654,1.429-2.514,1.923c-0.861,0.496-1.697,0.701-2.514,0.611c-0.992-0.088-1.689-0.348-2.098-0.785
			s-0.605-0.992-0.59-1.661c0.016-0.671,0.189-1.429,0.523-2.274c0.336-0.844,0.75-1.704,1.246-2.578
			c-0.293,0.204-0.531,0.379-0.721,0.524s-0.363,0.277-0.525,0.393c-0.16,0.118-0.32,0.228-0.48,0.328
			c-0.162,0.103-0.342,0.213-0.547,0.328c-0.174,0.094-0.346,0.149-0.516,0.176c-5.361,3.71-10.115,5.571-14.26,5.571h-2.744
			c-2.221,0-3.33-0.697-3.33-2.092c0-0.402,0.085-0.822,0.237-1.254c-2.091,1.418-3.831,2.393-5.202,2.896h-4.18
			c-0.48,0-0.938-0.348-1.371-1.045v-1.443c0-1.127,0.783-3.035,2.352-5.723h-0.523c-4.355,5.707-7.643,8.559-9.863,8.559h-0.914
			c-1.697,0-2.635-0.348-2.809-1.045v-0.348c1.069-2.955,3.886-8.953,8.434-17.967c-1.484,0.018-2.981,0.034-4.514,0.052
			c-8.524,15.18-13.452,23.765-16.248,28.548c0.183,0,0.366-0.004,0.549-0.006l2.391-0.002c28.848,0,57.248,1.256,84.414,3.734
			l1.335,0.121l-0.264-1.314C1222.394,686.864,1222.096,683.829,1222.086,680.726z"/>
		<path fill="none" d="M1108.857,622.814c1.768-3.384,3.075-7.447,3.919-12.192c-0.442-2.123-1.024-3.186-1.75-3.186
			c-7.035,2.622-17.471,11.58-31.302,26.874l-35.524,40.808c-3.018,3.15-5.349,4.727-6.997,4.727h-0.423
			c-2.292-0.199-3.438-1.045-3.438-2.537c0-2.29,2.434-14.582,7.298-36.877c0.322-2.389,0.483-4.18,0.483-5.374
			c-0.323-0.497-0.483-0.878-0.483-1.146c-3.66,3.186-8.726,10.137-15.198,20.853c-12.966,21.87-22.329,36.694-28.118,44.519
			c16.035-2.91,32.285-5.295,48.627-7.09c9.151-1.004,18.354-1.84,27.58-2.543c5.716-11.641,13.001-24.84,21.875-39.613
			C1101.598,638.259,1106.081,629.185,1108.857,622.814z"/>
		<path fill="none" d="M1144.718,659.011h-6.596c-5.662,0-8.492,0.48-8.492,1.443c-4.398,7.299-7.533,13.619-9.406,18.959h0.459
			c9.145-6.27,17.154-12.938,24.035-20.004V659.011z"/>
		<path fill="none" d="M1293.381,705.923c-3.157-0.713-6.479-1.41-9.875-2.072c-3.413-0.664-6.583-1.227-9.42-1.676
			c-2.978-0.471-5.097-0.826-6.509-1.09c-6.043-0.928-12.223-1.795-18.368-2.578c-6.117-0.775-12.392-1.484-18.647-2.109
			l-1.765-0.176l0.763,1.602c1.153,2.418,2.625,4.764,4.373,6.967c1.768,2.236,4.049,4.238,6.816,5.973
			c3.372,1.924,7.754,3.223,13.023,3.861c3.828,0.463,7.876,0.699,12.031,0.699c1.486,0,3.015-0.031,4.542-0.09
			c5.796-0.221,11.548-0.83,17.093-1.811c5.504-0.969,10.26-2.066,14.137-3.262l2.835-0.875l-2.786-1.02
			C1299.358,707.437,1296.585,706.649,1293.381,705.923z"/>
		<path fill="none" d="M1101.87,666.874c-2.439,0.994-4.311,2.786-5.617,5.373v0.349h0.393c4.703-3.019,7.055-4.81,7.055-5.374
			l-0.85-0.348H1101.87z"/>
		<path fill="#FFFFFF" d="M1309.919,708.114c-1.236-1.432-3.305-2.775-6.148-3.994c-2.93-1.248-6.402-2.352-10.321-3.279
			c-3.948-0.934-7.806-1.707-11.464-2.303c-3.651-0.588-6.848-1.07-9.499-1.432c-1.999-0.268-3.97-0.531-4.171-0.549
			c-13.011-1.934-26.406-3.66-39.886-5.141l-0.728-0.08l-0.144-0.717c-0.603-3.006-0.914-6.17-0.925-9.404
			c-0.01-3.211,0.023-6.457,0.102-9.65c0.059-0.818-0.076-1.365-0.408-1.723c-0.314-0.34-0.861-0.547-1.603-0.633
			c-0.153-0.068-0.317-0.122-0.501-0.142c-0.329-0.036-0.627,0.033-0.898,0.197c-0.29,0.089-0.534,0.247-0.723,0.507
			c-1.51,1.081-2.808,1.891-3.863,2.4c-1.18,0.568-2.137,0.881-2.865,0.939c-0.727,0.059-1.26-0.103-1.594-0.481
			c-0.336-0.379-0.533-0.859-0.592-1.442c0.672-0.845,1.27-1.668,1.793-2.47c0.523-0.801,1.02-1.538,1.486-2.208
			c0.205-0.262,0.395-0.553,0.568-0.874c0.174-0.32,0.27-0.634,0.283-0.939c0.016-0.307-0.072-0.583-0.26-0.831
			c-0.191-0.248-0.564-0.415-1.117-0.503c-0.758-0.116-1.449,0-2.074,0.35c-0.629,0.35-1.182,0.847-1.662,1.487
			s-0.873,1.384-1.18,2.229c-0.307,0.846-0.504,1.705-0.59,2.579c-0.555,0.7-1.189,1.385-1.902,2.054
			c-0.715,0.672-1.412,1.268-2.098,1.793s-1.297,0.926-1.836,1.203c-0.539,0.275-0.912,0.356-1.113,0.239
			c-0.09-0.029-0.053-0.211,0.107-0.546s0.371-0.751,0.635-1.246c0.262-0.495,0.545-1.056,0.852-1.683
			c0.305-0.626,0.561-1.245,0.766-1.858c0.203-0.612,0.328-1.195,0.369-1.748c0.045-0.553-0.049-1.006-0.283-1.354
			c-0.465-0.7-1.049-0.968-1.748-0.81c-0.697,0.162-1.463,0.555-2.293,1.18c-0.832,0.628-1.684,1.407-2.559,2.34
			c-0.873,0.933-1.713,1.821-2.514,2.667c-0.803,0.844-1.545,1.558-2.229,2.142c-0.686,0.583-1.232,0.845-1.639,0.787
			c-0.148-0.029-0.168-0.198-0.066-0.504s0.277-0.698,0.523-1.18c0.248-0.481,0.531-1.006,0.854-1.574
			c0.32-0.567,0.619-1.121,0.896-1.66c0.275-0.54,0.502-1.035,0.676-1.486c0.176-0.452,0.248-0.81,0.219-1.071
			c-0.086-0.583-0.307-0.969-0.654-1.158c-0.35-0.189-0.781-0.24-1.289-0.153c-0.51,0.088-1.072,0.284-1.684,0.591
			c-0.613,0.305-1.211,0.641-1.791,1.005c-0.584,0.364-1.125,0.729-1.617,1.093c-0.496,0.364-0.904,0.648-1.227,0.852
			c-0.225,0.161-0.381,0.335-0.482,0.519c-5.811,3.695-10.474,5.656-13.959,5.84h-0.457c0-0.762,0.783-2.438,2.35-5.026
			c6.924-1.524,10.387-2.936,10.387-4.229c0-1.492-1.285-2.339-3.854-2.538h-0.85l-3.332,0.746
			c-1.592,1.306-2.912,2.344-3.979,3.136h-0.919c-4.877,3.583-8.338,5.84-10.385,6.768c0.871-2.521,1.98-5.025,3.33-7.514
			c-0.26-1.194-0.74-1.792-1.436-1.792h-1.373c-3.482,0-7.119,2.388-10.906,7.166c0.348-0.862,0.521-1.344,0.521-1.442
			c2.514-4.771,4.784-9.098,6.819-12.989c10.38-0.11,19.53-0.191,27.415-0.24v-1.85h-0.139c-6.57,0-15.346,0.085-26.318,0.256
			c7.737-14.823,11.743-22.792,12.014-23.894v-0.697c-0.219-0.498-1.002-0.962-2.352-1.394c-0.609,0-1.395,0.216-2.352,0.646
			l0.457,1.792c-4.912,9.306-8.994,17.164-12.27,23.619c-1.307,0.021-2.631,0.045-3.994,0.068h-0.457l6.074-11.794v-0.747
			c-0.348,0-0.807-0.132-1.371-0.397c-0.74,0-1.371,0.134-1.895,0.397c-0.828,0.598-3.049,4.049-6.662,10.352
			c0,1.692-1.852,2.538-5.553,2.538h-10.906c0-0.598,2.066-3.948,6.205-10.053v-1.442c-0.35,0-0.85-0.116-1.504-0.349h-0.848
			c-1.395,0-4.246,4.081-8.557,12.241h-9.406c-1.568,0-2.482,0.349-2.744,1.046v0.349l0.393,0.696
			c4.791-0.198,8.1-0.298,9.928-0.298h0.459c-2.186,4.093-3.981,7.586-5.405,10.506c-4.677,2.496-8.54,4.371-11.579,5.617h-0.391
			c0-2.057,1.871-6.37,5.617-12.938v-0.349c0-0.398-0.305-0.646-0.914-0.746h-1.438c-0.48,0-1.895,1.095-4.246,3.283
			c-0.828,0-1.938-0.131-3.33-0.397c-1.438,0-3.006,0.349-4.703,1.046c-4.703,2.256-7.055,4.777-7.055,7.563v1.046
			c0.262,0.729,1.219,1.094,2.873,1.094h0.98c2.875,0,5.684-1.442,8.426-4.33h0.457v0.399c-0.652,0.929-0.979,2.239-0.979,3.931
			v0.398c0,1.393,0.957,2.09,2.873,2.09h1.438c2.453,0,5.799-1.182,9.998-3.492c-1.347,3.043-2.029,5.063-2.029,6.031
			c0.219,1.193,0.676,1.791,1.371,1.791h3.332c2.742,0,9.471-4.662,20.182-13.984l-11.16,19.287
			c-17.115,0.154-34.314,0.828-51.447,2.037c3.645-7.293,7.91-15.215,12.807-23.779c17.049-29.526,25.574-47.94,25.574-55.239
			v-1.044c0-2.091-1.448-3.285-4.343-3.584h-0.422c-5.993,0-13.653,4.777-22.981,14.332c-3.738,3.584-9.529,9.672-17.369,18.264
			c-16.729,19.873-28.008,32.547-33.836,38.02c0-0.596,0.12-1.574,0.36-2.936c4.343-19.508,6.815-31.915,7.42-37.224
			c0-3.351-1.308-5.026-3.921-5.026h-0.905c-1.086,0-2.675,0.73-4.764,2.189c-7.239,8.958-20.548,29.61-39.929,61.957h-0.422
			c6.553-18.014,14.656-36.527,24.307-55.537l-0.422-1.443h-2.655c-2.813,0.896-4.824,2.323-6.031,4.279
			c0.643,0.498,1.669,0.748,3.077,0.748c-15.682,31.85-23.523,50.826-23.523,56.93v0.385c-10.502,2.02-20.901,4.266-31.154,6.748
			c-28.127,6.809-54.902,15.721-79.582,26.486l-0.096,0.037c-0.536,0.17-0.866,0.504-1.073,1.084
			c-0.217,0.617-0.177,1.186,0.126,1.789l0.061,0.15c0.168,0.533,0.501,0.863,1.082,1.066c0.622,0.223,1.183,0.182,1.791-0.125
			c24.683-10.852,51.484-19.727,79.707-26.398c28.184-6.664,57.391-11.695,86.812-14.957c7.758-0.859,15.555-1.598,23.371-2.232
			c-8.873,18.811-13.312,33.227-13.312,43.24c0,4.779,1.446,7.166,4.343,7.166c2.251,0,3.699-0.596,4.342-1.791v-1.045
			c-0.643,0-1.205-0.133-1.688-0.398l-2.171,0.746l-0.482-3.582v-1.791c0-9.678,4.551-23.979,13.652-42.9
			c17.021-1.283,34.127-2.043,51.167-2.248l-0.249,0.43c0,0.762,0.326,1.145,0.98,1.145h2.352c0.105,0,0.441-0.176,0.984-0.508
			c-0.166,0.234-0.263,0.43,0.025-0.016c0.115-0.07,0.227-0.139,0.361-0.225c0-0.199-0.141-0.076-0.279,0.098
			c0.134-0.211,0.326-0.52,0.594-0.957c1.656-0.012,3.314-0.035,4.969-0.035c29.657,0.002,58.795,1.375,86.633,4.076l0.67,0.066
			l0.191,0.645c1.385,4.662,3.626,8.854,6.664,12.461c3.008,3.576,7.486,6.484,13.309,8.645c3.208,1.178,8.135,1.857,14.643,2.02
			c6.586,0.162,13.443-0.063,20.421-0.676c6.945-0.607,13.414-1.557,19.228-2.818c7.027-1.529,9.677-3.09,10.662-4.129
			C1311.104,710.013,1310.623,708.931,1309.919,708.114z M1181.884,666.624l-1.959,1.443h-0.393
			C1179.663,667.569,1180.446,667.089,1181.884,666.624z M1096.646,672.596h-0.393v-0.349c1.307-2.587,3.178-4.379,5.617-5.373h0.98
			l0.85,0.348C1103.7,667.786,1101.349,669.577,1096.646,672.596z M1073.531,689.649c-9.226,0.703-18.429,1.539-27.58,2.543
			c-16.342,1.795-32.592,4.18-48.627,7.09c5.789-7.824,15.152-22.648,28.118-44.519c6.473-10.716,11.538-17.667,15.198-20.853
			c0,0.268,0.16,0.648,0.483,1.146c0,1.194-0.161,2.985-0.483,5.374c-4.864,22.295-7.298,34.587-7.298,36.877
			c0,1.492,1.146,2.338,3.438,2.537h0.423c1.648,0,3.979-1.576,6.997-4.727l35.524-40.808
			c13.831-15.294,24.267-24.252,31.302-26.874c0.726,0,1.308,1.063,1.75,3.186c-0.844,4.745-2.151,8.809-3.919,12.192
			c-2.776,6.37-7.26,15.444-13.451,27.222C1086.532,664.81,1079.247,678.009,1073.531,689.649z M1120.683,679.413h-0.459
			c1.873-5.34,5.008-11.66,9.406-18.959c0-0.963,2.83-1.443,8.492-1.443h6.596v0.398
			C1137.837,666.476,1129.827,673.144,1120.683,679.413z M1221.899,690.937c-27.166-2.479-55.566-3.734-84.414-3.734l-2.391,0.002
			c-0.183,0.002-0.366,0.006-0.549,0.006c2.796-4.783,7.724-13.368,16.248-28.548c1.532-0.018,3.029-0.034,4.514-0.052
			c-4.548,9.014-7.364,15.012-8.434,17.967v0.348c0.174,0.697,1.111,1.045,2.809,1.045h0.914c2.221,0,5.508-2.852,9.863-8.559h0.523
			c-1.568,2.688-2.352,4.596-2.352,5.723v1.443c0.434,0.697,0.891,1.045,1.371,1.045h4.18c1.371-0.504,3.111-1.479,5.202-2.896
			c-0.152,0.432-0.237,0.852-0.237,1.254c0,1.395,1.109,2.092,3.33,2.092h2.744c4.145,0,8.898-1.861,14.26-5.571
			c0.17-0.026,0.342-0.082,0.516-0.176c0.205-0.115,0.385-0.226,0.547-0.328c0.16-0.101,0.32-0.21,0.48-0.328
			c0.162-0.115,0.336-0.247,0.525-0.393s0.428-0.32,0.721-0.524c-0.496,0.874-0.91,1.734-1.246,2.578
			c-0.334,0.846-0.508,1.604-0.523,2.274c-0.016,0.669,0.182,1.224,0.59,1.661s1.105,0.697,2.098,0.785
			c0.816,0.09,1.652-0.115,2.514-0.611c0.859-0.494,1.697-1.137,2.514-1.923c0.814-0.786,1.602-1.632,2.361-2.535
			c0.758-0.903,1.455-1.705,2.098-2.403c-0.35,0.757-0.691,1.58-1.027,2.469c-0.336,0.89-0.518,1.713-0.547,2.47
			s0.158,1.397,0.568,1.923c0.406,0.523,1.18,0.801,2.318,0.83c1.396,0,2.729-0.43,3.998-1.289c1.268-0.859,2.455-1.916,3.563-3.169
			c0.408,0.875,0.947,1.486,1.617,1.836c0.67,0.351,1.406,0.524,2.207,0.524c0.803,0,1.639-0.153,2.514-0.457
			c0.873-0.308,1.734-0.686,2.578-1.138c0.585-0.313,1.129-0.649,1.679-0.983c-0.04,2.364-0.064,4.752-0.057,7.133
			c0.01,3.104,0.308,6.139,0.885,9.018l0.264,1.314L1221.899,690.937z M1301.575,710.161c-3.877,1.195-8.633,2.293-14.137,3.262
			c-5.545,0.98-11.297,1.59-17.093,1.811c-1.527,0.059-3.056,0.09-4.542,0.09c-4.155,0-8.203-0.236-12.031-0.699
			c-5.27-0.639-9.651-1.938-13.023-3.861c-2.768-1.734-5.049-3.736-6.816-5.973c-1.748-2.203-3.22-4.549-4.373-6.967l-0.763-1.602
			l1.765,0.176c6.256,0.625,12.53,1.334,18.647,2.109c6.146,0.783,12.325,1.65,18.368,2.578c1.412,0.264,3.531,0.619,6.509,1.09
			c2.837,0.449,6.007,1.012,9.42,1.676c3.396,0.662,6.718,1.359,9.875,2.072c3.204,0.727,5.978,1.514,8.243,2.344l2.786,1.02
			L1301.575,710.161z"/>
		<path fill="#FFFFFF" d="M924.123,618.38h-2.352l-0.979,0.3c-13.325,26.872-25.081,47.675-35.271,62.403
			c-4.441,7.465-12.41,16.424-23.906,26.875c-18.984,13.834-34.203,20.752-45.656,20.752h-0.457c-4.834,0-7.643-1.676-8.426-5.027
			c0-3.717,1.851-7.764,5.551-12.143c5.313-7.963,14.719-15.857,28.217-23.688c17.594-8.492,33.77-13.27,48.531-14.332h0.457v-1.792
			h-1.438c-4.79,0-12.301,1.194-22.533,3.583c-14.979,3.75-29.414,10.549-43.306,20.404c-12.889,11.346-19.616,20.42-20.183,27.221
			c0,0.498,0.152,0.746,0.457,0.746c0,4.545,3.592,6.818,10.777,6.818h4.703c2.047,0,5.029-0.482,8.947-1.443
			c9.973-2.09,21.882-8.18,35.729-18.264c18.508-12.541,39.212-43.129,62.117-91.766C925.103,618.63,924.776,618.414,924.123,618.38
			z"/>
		<path fill="#FFFFFF" d="M827.715,615.097h3.723c9.755-0.697,21.055-1.046,33.899-1.046h14.108c1.567,0,3.919-0.132,7.054-0.397
			c0,0.266,0.174,0.397,0.523,0.397c3.178-0.265,5.682-0.397,7.512-0.397h12.148c8.84,0,20.923,0.133,36.251,0.397
			c1.698-0.265,2.939-0.397,3.723-0.397c3.919,0.199,12.411,0.447,25.473,0.746c0.609-0.231,1.066-0.349,1.373-0.349v-1.442
			c-2.221-0.498-4.115-0.747-5.684-0.747h-7.445l-2.81,0.397l-0.979-0.397c-20.859-0.231-37.493-0.349-49.903-0.349h-30.046
			c-12.54,0.1-18.812,0.349-18.812,0.746c-20.727,0-31.09,0.598-31.09,1.792v0.349C826.736,614.864,827.062,615.097,827.715,615.097
			z"/>
		<path fill="#FFFFFF" d="M969.845,675.411l0.523-0.746v-0.697c0-0.431-0.328-0.68-0.98-0.746h-1.371
			c-1.714,1.375-3.042,2.701-4.03,3.98c-2.435,1.549-4.664,2.598-6.684,3.135c0.916-3.184,1.372-4.858,1.372-5.025
			c-0.522-2.389-1.61-3.583-3.265-3.583l-2.809,0.397c-1.723,0.996-3.122,2.094-4.214,3.285h-0.163
			c-7.185,4.279-11.888,6.42-14.108,6.42c-0.828-2.887-1.764-4.777-2.809-5.674c4.092-2.588,6.14-4.279,6.14-5.075
			c0-1.659-1.11-2.488-3.331-2.488h-1.829c-3.093,0-5.116,1.542-6.074,4.628v1.145c0.34,0.51,0.658,0.998,0.957,1.465
			c-4.746,2.537-8.663,4.441-11.735,5.701h-0.391c0-2.057,1.871-6.37,5.617-12.938v-0.349c0-0.398-0.306-0.646-0.915-0.746h-1.437
			c-0.48,0-1.895,1.095-4.246,3.283c-0.828,0-1.938-0.131-3.331-0.397c-1.437,0-3.005,0.349-4.702,1.046
			c-4.703,2.256-7.055,4.777-7.055,7.563v1.047c0.262,0.729,1.219,1.094,2.873,1.094h0.98c2.874,0,5.683-1.443,8.426-4.33h0.457
			v0.398c-0.652,0.93-0.979,2.24-0.979,3.932v0.398c0,1.393,0.958,2.09,2.874,2.09h1.438c3.1,0,7.6-1.85,13.494-5.543
			c1.227,2.131,1.854,3.639,1.854,4.498c-2.394,0.93-4.114,1.99-5.16,3.186v1.443h2.81c2.829,0,4.702-0.947,5.617-2.838
			c4.271-0.963,8.362-2.533,12.281-4.684c-0.254,0.893-0.395,1.82-0.395,2.793v0.398c0,1.227,0.61,2.041,1.829,2.438h4.246
			c2.525-1.227,3.789-2.289,3.789-3.184c2.303,0,4.53-0.422,6.689-1.221c-0.096,0.428-0.159,0.854-0.159,1.27v0.398
			c0,0.498,0.285,0.746,0.85,0.746h3.332c0.74,0,4.963-3.715,12.672-11.146h0.457c-3.703,6.336-5.553,10.053-5.553,11.146v1.791
			l2.352,0.299h1.828c3.223,0,8.23-3.084,15.023-9.256v-0.397c0-0.431-0.305-0.681-0.914-0.747h-2.352
			c-7.055,5.275-10.973,7.912-11.758,7.912c3.746-6.568,5.617-10.4,5.617-11.494v-1.395c-0.479-0.696-0.936-1.045-1.371-1.045
			h-1.895c-2.352,0-5.639,2.141-9.861,6.42H969.845z M903.679,678.595h-0.393v-0.348c1.307-2.587,3.178-4.379,5.617-5.373h0.98
			l0.849,0.348C910.733,673.786,908.381,675.577,903.679,678.595z M929.936,673.62c0-1.46,1.11-2.538,3.331-3.235h0.393
			C933.136,671.646,931.896,672.724,929.936,673.62z M949.727,683.522h-0.457v-1.045l0.457-3.582
			c1.393,1.658,2.178,2.488,2.352,2.488C951.686,682.378,950.902,683.093,949.727,683.522z M954.43,678.147h-0.457v-1.393h0.457
			V678.147z M954.953,676.356h-0.523v-1.393h0.523V676.356z"/>
	</g>
</g>
</svg>
